<svg width="56" height="50" viewBox="0 0 56 50" fill="none" xmlns="http://www.w3.org/2000/svg">
<g filter="url(#filter0_d_1419_1705)">
<rect x="10" width="36" height="36" rx="6" fill="white"/>
<path d="M25.1125 14.3109L32.6813 18.2887L25.1125 22.2998V14.3109Z" fill="white"/>
<path opacity="0.12" d="M25.1125 22.2998L31.7516 17.7998L32.6813 18.2887L25.1125 22.2998Z" fill="#3A3A3A"/>
<path d="M41.7048 23.6889C41.7048 23.6889 41.4315 25.6444 40.5896 26.5111C39.5291 27.6444 38.3374 27.6444 37.7798 27.7111C33.8767 28 28.0055 28 28.0055 28H27.9945C27.9945 28 22.1234 28 18.1984 27.7111C17.6517 27.6444 16.46 27.6444 15.3885 26.5111C14.5576 25.6444 14.2843 23.6889 14.2843 23.6889C14.2843 23.6889 14 21.3778 14 19.0778V16.9222C14 14.6222 14.2843 12.3222 14.2843 12.3222C14.2843 12.3222 14.5576 10.3667 15.3995 9.5C16.46 8.36667 17.8594 8.4 18.4826 8.28889C20.7239 8.06667 27.9945 8 27.9945 8C27.9945 8 33.8766 8.01111 37.7907 8.3C38.3374 8.36667 39.5291 8.36667 40.6005 9.5C41.4424 10.3667 41.7157 12.3222 41.7157 12.3222C41.7157 12.3222 42 14.6222 42 16.9222V19.0778C41.9891 21.3778 41.7048 23.6889 41.7048 23.6889ZM25.1082 14.3111V22.3L32.6739 18.2889L25.1081 14.3111H25.1082Z" fill="url(#paint0_linear_1419_1705)"/>
</g>
<defs>
<filter id="filter0_d_1419_1705" x="0" y="-6" width="56" height="56" filterUnits="userSpaceOnUse" color-interpolation-filters="sRGB">
<feFlood flood-opacity="0" result="BackgroundImageFix"/>
<feColorMatrix in="SourceAlpha" type="matrix" values="0 0 0 0 0 0 0 0 0 0 0 0 0 0 0 0 0 0 127 0" result="hardAlpha"/>
<feOffset dy="4"/>
<feGaussianBlur stdDeviation="5"/>
<feColorMatrix type="matrix" values="0 0 0 0 0 0 0 0 0 0 0 0 0 0 0 0 0 0 0.25 0"/>
<feBlend mode="normal" in2="BackgroundImageFix" result="effect1_dropShadow_1419_1705"/>
<feBlend mode="normal" in="SourceGraphic" in2="effect1_dropShadow_1419_1705" result="shape"/>
</filter>
<linearGradient id="paint0_linear_1419_1705" x1="27.9944" y1="28" x2="27.9944" y2="7.994" gradientUnits="userSpaceOnUse">
<stop stop-color="#E52D27"/>
<stop offset="1" stop-color="#BF171D"/>
</linearGradient>
</defs>
</svg>
