<svg width="46" height="50" viewBox="0 0 46 50" fill="none" xmlns="http://www.w3.org/2000/svg">
<g filter="url(#filter0_d_1419_1710)">
<rect x="10" width="36" height="36" rx="6" fill="white"/>
<g clip-path="url(#clip0_1419_1710)">
<path d="M15 18.5002C15 24.0282 18.3242 28.7773 23.0809 30.8653C23.0429 29.9226 23.0742 28.7909 23.3159 27.7652C23.5755 26.6693 25.053 20.409 25.053 20.409C25.053 20.409 24.6217 19.547 24.6217 18.273C24.6217 16.2724 25.7812 14.7782 27.2253 14.7782C28.4533 14.7782 29.0465 15.7005 29.0465 16.805C29.0465 18.0394 28.2592 19.8859 27.8543 21.596C27.5161 23.0281 28.5724 24.1962 29.9851 24.1962C32.5429 24.1962 34.2657 20.9109 34.2657 17.0185C34.2657 14.0597 32.2728 11.845 28.6482 11.845C24.553 11.845 22.0019 14.899 22.0019 18.3103C22.0019 19.4864 22.3486 20.3159 22.8918 20.9582C23.1416 21.2532 23.1763 21.3718 23.0859 21.7106C23.0211 21.959 22.8724 22.557 22.8108 22.7939C22.7209 23.1359 22.4439 23.2581 22.1349 23.1319C20.2487 22.3618 19.3702 20.2962 19.3702 17.9742C19.3702 14.1393 22.6045 9.54085 29.0187 9.54085C34.173 9.54085 37.5654 13.2706 37.5654 17.2743C37.5654 22.5702 34.6211 26.5267 30.281 26.5267C28.8236 26.5267 27.4526 25.7388 26.9829 24.8439C26.9829 24.8439 26.1992 27.9544 26.0332 28.5551C25.7469 29.5959 25.1867 30.6363 24.6744 31.4471C25.9166 31.8144 27.2052 32.0009 28.5005 32.0007C35.9555 32.0007 42.0001 25.9564 42.0001 18.5002C42.0001 11.0443 35.9555 5 28.5005 5C21.0448 5 15 11.0443 15 18.5002Z" fill="url(#paint0_linear_1419_1710)"/>
</g>
</g>
<defs>
<filter id="filter0_d_1419_1710" x="0" y="-6" width="56" height="56" filterUnits="userSpaceOnUse" color-interpolation-filters="sRGB">
<feFlood flood-opacity="0" result="BackgroundImageFix"/>
<feColorMatrix in="SourceAlpha" type="matrix" values="0 0 0 0 0 0 0 0 0 0 0 0 0 0 0 0 0 0 127 0" result="hardAlpha"/>
<feOffset dy="4"/>
<feGaussianBlur stdDeviation="5"/>
<feColorMatrix type="matrix" values="0 0 0 0 0 0 0 0 0 0 0 0 0 0 0 0 0 0 0.25 0"/>
<feBlend mode="normal" in2="BackgroundImageFix" result="effect1_dropShadow_1419_1710"/>
<feBlend mode="normal" in="SourceGraphic" in2="effect1_dropShadow_1419_1710" result="shape"/>
</filter>
<linearGradient id="paint0_linear_1419_1710" x1="18.24" y1="5" x2="33.9" y2="32" gradientUnits="userSpaceOnUse">
<stop stop-color="#D22A2D"/>
<stop offset="1" stop-color="#D22C2E"/>
</linearGradient>
<clipPath id="clip0_1419_1710">
<rect width="27" height="27" fill="white" transform="translate(15 5)"/>
</clipPath>
</defs>
</svg>
